<svg xmlns="http://www.w3.org/2000/svg" xmlns:xlink="http://www.w3.org/1999/xlink" width="500" zoomAndPan="magnify" viewBox="0 0 375 89.999999" height="120" preserveAspectRatio="xMidYMid meet" version="1.0"><defs><g/><clipPath id="fb60949e0e"><path d="M 4.527344 0 L 34 0 L 34 45 L 4.527344 45 Z M 4.527344 0 " clip-rule="nonzero"/></clipPath></defs><g clip-path="url(#fb60949e0e)"><path fill="#252f3c" d="M 33.609375 0 C 33.609375 20.992188 25.550781 45 4.550781 45 L 33.609375 45 Z M 33.609375 0 " fill-opacity="1" fill-rule="nonzero"/></g><path fill="#252f3c" d="M 33.609375 45 L 33.609375 90 C 33.609375 69.007812 41.664062 45 62.664062 45 Z M 33.609375 45 " fill-opacity="1" fill-rule="nonzero"/><g fill="#155dfc" fill-opacity="1"><g transform="translate(219.932861, 58.499999)"><g><path d="M 19.5625 -6.203125 L 7.40625 -6.203125 L 5.15625 0 L 1.3125 0 L 11.40625 -27.71875 L 15.59375 -27.71875 L 25.640625 0 L 21.796875 0 Z M 18.515625 -9.15625 L 13.484375 -23.234375 L 8.4375 -9.15625 Z M 18.515625 -9.15625 "/></g></g></g><g fill="#155dfc" fill-opacity="1"><g transform="translate(246.890184, 58.499999)"><g><path d="M 6.71875 -17.875 C 7.4375 -19.132812 8.507812 -20.179688 9.9375 -21.015625 C 11.363281 -21.859375 13.023438 -22.28125 14.921875 -22.28125 C 16.867188 -22.28125 18.632812 -21.8125 20.21875 -20.875 C 21.800781 -19.945312 23.046875 -18.632812 23.953125 -16.9375 C 24.859375 -15.25 25.3125 -13.285156 25.3125 -11.046875 C 25.3125 -8.828125 24.859375 -6.847656 23.953125 -5.109375 C 23.046875 -3.378906 21.800781 -2.035156 20.21875 -1.078125 C 18.632812 -0.117188 16.867188 0.359375 14.921875 0.359375 C 13.054688 0.359375 11.410156 -0.0546875 9.984375 -0.890625 C 8.554688 -1.734375 7.46875 -2.785156 6.71875 -4.046875 L 6.71875 10.40625 L 3.078125 10.40625 L 3.078125 -21.921875 L 6.71875 -21.921875 Z M 21.59375 -11.046875 C 21.59375 -12.691406 21.257812 -14.128906 20.59375 -15.359375 C 19.925781 -16.585938 19.023438 -17.519531 17.890625 -18.15625 C 16.765625 -18.800781 15.519531 -19.125 14.15625 -19.125 C 12.820312 -19.125 11.585938 -18.796875 10.453125 -18.140625 C 9.328125 -17.484375 8.421875 -16.535156 7.734375 -15.296875 C 7.054688 -14.054688 6.71875 -12.625 6.71875 -11 C 6.71875 -9.34375 7.054688 -7.894531 7.734375 -6.65625 C 8.421875 -5.414062 9.328125 -4.46875 10.453125 -3.8125 C 11.585938 -3.164062 12.820312 -2.84375 14.15625 -2.84375 C 15.519531 -2.84375 16.765625 -3.164062 17.890625 -3.8125 C 19.023438 -4.46875 19.925781 -5.414062 20.59375 -6.65625 C 21.257812 -7.894531 21.59375 -9.359375 21.59375 -11.046875 Z M 21.59375 -11.046875 "/></g></g></g><g fill="#155dfc" fill-opacity="1"><g transform="translate(273.927502, 58.499999)"><g><path d="M 6.71875 -17.875 C 7.4375 -19.132812 8.507812 -20.179688 9.9375 -21.015625 C 11.363281 -21.859375 13.023438 -22.28125 14.921875 -22.28125 C 16.867188 -22.28125 18.632812 -21.8125 20.21875 -20.875 C 21.800781 -19.945312 23.046875 -18.632812 23.953125 -16.9375 C 24.859375 -15.25 25.3125 -13.285156 25.3125 -11.046875 C 25.3125 -8.828125 24.859375 -6.847656 23.953125 -5.109375 C 23.046875 -3.378906 21.800781 -2.035156 20.21875 -1.078125 C 18.632812 -0.117188 16.867188 0.359375 14.921875 0.359375 C 13.054688 0.359375 11.410156 -0.0546875 9.984375 -0.890625 C 8.554688 -1.734375 7.46875 -2.785156 6.71875 -4.046875 L 6.71875 10.40625 L 3.078125 10.40625 L 3.078125 -21.921875 L 6.71875 -21.921875 Z M 21.59375 -11.046875 C 21.59375 -12.691406 21.257812 -14.128906 20.59375 -15.359375 C 19.925781 -16.585938 19.023438 -17.519531 17.890625 -18.15625 C 16.765625 -18.800781 15.519531 -19.125 14.15625 -19.125 C 12.820312 -19.125 11.585938 -18.796875 10.453125 -18.140625 C 9.328125 -17.484375 8.421875 -16.535156 7.734375 -15.296875 C 7.054688 -14.054688 6.71875 -12.625 6.71875 -11 C 6.71875 -9.34375 7.054688 -7.894531 7.734375 -6.65625 C 8.421875 -5.414062 9.328125 -4.46875 10.453125 -3.8125 C 11.585938 -3.164062 12.820312 -2.84375 14.15625 -2.84375 C 15.519531 -2.84375 16.765625 -3.164062 17.890625 -3.8125 C 19.023438 -4.46875 19.925781 -5.414062 20.59375 -6.65625 C 21.257812 -7.894531 21.59375 -9.359375 21.59375 -11.046875 Z M 21.59375 -11.046875 "/></g></g></g><g fill="#155dfc" fill-opacity="1"><g transform="translate(300.96482, 58.499999)"><g><path d="M 23.078125 -11.796875 C 23.078125 -11.109375 23.035156 -10.375 22.953125 -9.59375 L 5.4375 -9.59375 C 5.570312 -7.4375 6.3125 -5.75 7.65625 -4.53125 C 9.007812 -3.320312 10.644531 -2.71875 12.5625 -2.71875 C 14.132812 -2.71875 15.445312 -3.082031 16.5 -3.8125 C 17.550781 -4.550781 18.289062 -5.535156 18.71875 -6.765625 L 22.640625 -6.765625 C 22.054688 -4.648438 20.882812 -2.929688 19.125 -1.609375 C 17.363281 -0.296875 15.175781 0.359375 12.5625 0.359375 C 10.476562 0.359375 8.613281 -0.101562 6.96875 -1.03125 C 5.332031 -1.96875 4.046875 -3.296875 3.109375 -5.015625 C 2.179688 -6.734375 1.71875 -8.726562 1.71875 -11 C 1.71875 -13.269531 2.171875 -15.253906 3.078125 -16.953125 C 3.984375 -18.660156 5.253906 -19.972656 6.890625 -20.890625 C 8.535156 -21.816406 10.425781 -22.28125 12.5625 -22.28125 C 14.644531 -22.28125 16.484375 -21.828125 18.078125 -20.921875 C 19.679688 -20.015625 20.914062 -18.765625 21.78125 -17.171875 C 22.644531 -15.585938 23.078125 -13.796875 23.078125 -11.796875 Z M 19.3125 -12.5625 C 19.3125 -13.945312 19.003906 -15.140625 18.390625 -16.140625 C 17.785156 -17.140625 16.953125 -17.898438 15.890625 -18.421875 C 14.835938 -18.941406 13.675781 -19.203125 12.40625 -19.203125 C 10.5625 -19.203125 8.992188 -18.613281 7.703125 -17.4375 C 6.410156 -16.269531 5.671875 -14.644531 5.484375 -12.5625 Z M 19.3125 -12.5625 "/></g></g></g><g fill="#155dfc" fill-opacity="1"><g transform="translate(325.762358, 58.499999)"><g><path d="M 1.71875 -11.046875 C 1.71875 -13.285156 2.171875 -15.25 3.078125 -16.9375 C 3.984375 -18.632812 5.226562 -19.945312 6.8125 -20.875 C 8.40625 -21.8125 10.175781 -22.28125 12.125 -22.28125 C 14.039062 -22.28125 15.703125 -21.863281 17.109375 -21.03125 C 18.523438 -20.207031 19.582031 -19.171875 20.28125 -17.921875 L 20.28125 -21.921875 L 23.953125 -21.921875 L 23.953125 0 L 20.28125 0 L 20.28125 -4.078125 C 19.5625 -2.796875 18.488281 -1.734375 17.0625 -0.890625 C 15.632812 -0.0546875 13.972656 0.359375 12.078125 0.359375 C 10.128906 0.359375 8.367188 -0.117188 6.796875 -1.078125 C 5.222656 -2.035156 3.984375 -3.378906 3.078125 -5.109375 C 2.171875 -6.847656 1.71875 -8.828125 1.71875 -11.046875 Z M 20.28125 -11 C 20.28125 -12.65625 19.945312 -14.09375 19.28125 -15.3125 C 18.613281 -16.539062 17.710938 -17.484375 16.578125 -18.140625 C 15.441406 -18.796875 14.195312 -19.125 12.84375 -19.125 C 11.476562 -19.125 10.234375 -18.800781 9.109375 -18.15625 C 7.992188 -17.519531 7.101562 -16.585938 6.4375 -15.359375 C 5.769531 -14.128906 5.4375 -12.691406 5.4375 -11.046875 C 5.4375 -9.359375 5.769531 -7.894531 6.4375 -6.65625 C 7.101562 -5.414062 7.992188 -4.46875 9.109375 -3.8125 C 10.234375 -3.164062 11.476562 -2.84375 12.84375 -2.84375 C 14.195312 -2.84375 15.441406 -3.164062 16.578125 -3.8125 C 17.710938 -4.46875 18.613281 -5.414062 19.28125 -6.65625 C 19.945312 -7.894531 20.28125 -9.34375 20.28125 -11 Z M 20.28125 -11 "/></g></g></g><g fill="#155dfc" fill-opacity="1"><g transform="translate(352.799675, 58.499999)"><g><path d="M 6.71875 -29.59375 L 6.71875 0 L 3.078125 0 L 3.078125 -29.59375 Z M 6.71875 -29.59375 "/></g></g></g><g fill="#252f3c" fill-opacity="1"><g transform="translate(57.762501, 58.499999)"><g><path d="M 19.40625 -6.640625 L 6.6875 -6.640625 L 4.234375 0 L 1.28125 0 L 11.484375 -27.59375 L 14.640625 -27.59375 L 24.796875 0 L 21.84375 0 Z M 18.5625 -8.953125 L 13.046875 -24.078125 L 7.515625 -8.953125 Z M 18.5625 -8.953125 "/></g></g></g><g fill="#252f3c" fill-opacity="1"><g transform="translate(83.039912, 58.499999)"><g><path d="M 1.921875 -10.921875 C 1.921875 -13.179688 2.375 -15.160156 3.28125 -16.859375 C 4.1875 -18.554688 5.4375 -19.863281 7.03125 -20.78125 C 8.632812 -21.695312 10.460938 -22.15625 12.515625 -22.15625 C 15.210938 -22.15625 17.429688 -21.488281 19.171875 -20.15625 C 20.921875 -18.820312 22.050781 -17.007812 22.5625 -14.71875 L 19.5625 -14.71875 C 19.1875 -16.289062 18.378906 -17.523438 17.140625 -18.421875 C 15.898438 -19.316406 14.359375 -19.765625 12.515625 -19.765625 C 11.046875 -19.765625 9.722656 -19.429688 8.546875 -18.765625 C 7.378906 -18.097656 6.457031 -17.101562 5.78125 -15.78125 C 5.101562 -14.457031 4.765625 -12.835938 4.765625 -10.921875 C 4.765625 -9.003906 5.101562 -7.378906 5.78125 -6.046875 C 6.457031 -4.710938 7.378906 -3.710938 8.546875 -3.046875 C 9.722656 -2.378906 11.046875 -2.046875 12.515625 -2.046875 C 14.359375 -2.046875 15.898438 -2.488281 17.140625 -3.375 C 18.378906 -4.269531 19.1875 -5.519531 19.5625 -7.125 L 22.5625 -7.125 C 22.050781 -4.882812 20.914062 -3.082031 19.15625 -1.71875 C 17.394531 -0.363281 15.179688 0.3125 12.515625 0.3125 C 10.460938 0.3125 8.632812 -0.144531 7.03125 -1.0625 C 5.4375 -1.976562 4.1875 -3.28125 3.28125 -4.96875 C 2.375 -6.664062 1.921875 -8.648438 1.921875 -10.921875 Z M 1.921875 -10.921875 "/></g></g></g><g fill="#252f3c" fill-opacity="1"><g transform="translate(106.757482, 58.499999)"><g><path d="M 1.921875 -10.921875 C 1.921875 -13.179688 2.375 -15.160156 3.28125 -16.859375 C 4.1875 -18.554688 5.4375 -19.863281 7.03125 -20.78125 C 8.632812 -21.695312 10.460938 -22.15625 12.515625 -22.15625 C 15.210938 -22.15625 17.429688 -21.488281 19.171875 -20.15625 C 20.921875 -18.820312 22.050781 -17.007812 22.5625 -14.71875 L 19.5625 -14.71875 C 19.1875 -16.289062 18.378906 -17.523438 17.140625 -18.421875 C 15.898438 -19.316406 14.359375 -19.765625 12.515625 -19.765625 C 11.046875 -19.765625 9.722656 -19.429688 8.546875 -18.765625 C 7.378906 -18.097656 6.457031 -17.101562 5.78125 -15.78125 C 5.101562 -14.457031 4.765625 -12.835938 4.765625 -10.921875 C 4.765625 -9.003906 5.101562 -7.378906 5.78125 -6.046875 C 6.457031 -4.710938 7.378906 -3.710938 8.546875 -3.046875 C 9.722656 -2.378906 11.046875 -2.046875 12.515625 -2.046875 C 14.359375 -2.046875 15.898438 -2.488281 17.140625 -3.375 C 18.378906 -4.269531 19.1875 -5.519531 19.5625 -7.125 L 22.5625 -7.125 C 22.050781 -4.882812 20.914062 -3.082031 19.15625 -1.71875 C 17.394531 -0.363281 15.179688 0.3125 12.515625 0.3125 C 10.460938 0.3125 8.632812 -0.144531 7.03125 -1.0625 C 5.4375 -1.976562 4.1875 -3.28125 3.28125 -4.96875 C 2.375 -6.664062 1.921875 -8.648438 1.921875 -10.921875 Z M 1.921875 -10.921875 "/></g></g></g><g fill="#252f3c" fill-opacity="1"><g transform="translate(130.475052, 58.499999)"><g><path d="M 12.765625 0.3125 C 10.710938 0.3125 8.863281 -0.144531 7.21875 -1.0625 C 5.582031 -1.976562 4.289062 -3.28125 3.34375 -4.96875 C 2.394531 -6.664062 1.921875 -8.648438 1.921875 -10.921875 C 1.921875 -13.179688 2.398438 -15.160156 3.359375 -16.859375 C 4.316406 -18.554688 5.625 -19.863281 7.28125 -20.78125 C 8.9375 -21.695312 10.789062 -22.15625 12.84375 -22.15625 C 14.894531 -22.15625 16.753906 -21.695312 18.421875 -20.78125 C 20.085938 -19.863281 21.394531 -18.554688 22.34375 -16.859375 C 23.289062 -15.160156 23.765625 -13.179688 23.765625 -10.921875 C 23.765625 -8.679688 23.28125 -6.707031 22.3125 -5 C 21.351562 -3.289062 20.035156 -1.976562 18.359375 -1.0625 C 16.679688 -0.144531 14.816406 0.3125 12.765625 0.3125 Z M 12.765625 -2.125 C 14.203125 -2.125 15.53125 -2.445312 16.75 -3.09375 C 17.976562 -3.75 18.972656 -4.738281 19.734375 -6.0625 C 20.492188 -7.382812 20.875 -9.003906 20.875 -10.921875 C 20.875 -12.835938 20.5 -14.457031 19.75 -15.78125 C 19.007812 -17.101562 18.023438 -18.085938 16.796875 -18.734375 C 15.566406 -19.390625 14.234375 -19.71875 12.796875 -19.71875 C 11.359375 -19.71875 10.023438 -19.390625 8.796875 -18.734375 C 7.566406 -18.085938 6.585938 -17.101562 5.859375 -15.78125 C 5.128906 -14.457031 4.765625 -12.835938 4.765625 -10.921875 C 4.765625 -9.003906 5.128906 -7.382812 5.859375 -6.0625 C 6.585938 -4.738281 7.554688 -3.75 8.765625 -3.09375 C 9.984375 -2.445312 11.316406 -2.125 12.765625 -2.125 Z M 12.765625 -2.125 "/></g></g></g><g fill="#252f3c" fill-opacity="1"><g transform="translate(155.352503, 58.499999)"><g><path d="M 22.125 -21.84375 L 22.125 0 L 19.3125 0 L 19.3125 -3.84375 C 18.675781 -2.476562 17.691406 -1.4375 16.359375 -0.71875 C 15.023438 0 13.53125 0.359375 11.875 0.359375 C 9.257812 0.359375 7.125 -0.445312 5.46875 -2.0625 C 3.820312 -3.675781 3 -6.015625 3 -9.078125 L 3 -21.84375 L 5.765625 -21.84375 L 5.765625 -9.40625 C 5.765625 -7.03125 6.351562 -5.210938 7.53125 -3.953125 C 8.71875 -2.703125 10.34375 -2.078125 12.40625 -2.078125 C 14.507812 -2.078125 16.1875 -2.742188 17.4375 -4.078125 C 18.6875 -5.410156 19.3125 -7.367188 19.3125 -9.953125 L 19.3125 -21.84375 Z M 22.125 -21.84375 "/></g></g></g><g fill="#252f3c" fill-opacity="1"><g transform="translate(179.869992, 58.499999)"><g><path d="M 13.4375 -22.234375 C 16.050781 -22.234375 18.179688 -21.425781 19.828125 -19.8125 C 21.484375 -18.207031 22.3125 -15.867188 22.3125 -12.796875 L 22.3125 0 L 19.5625 0 L 19.5625 -12.484375 C 19.5625 -14.859375 18.96875 -16.671875 17.78125 -17.921875 C 16.59375 -19.171875 14.972656 -19.796875 12.921875 -19.796875 C 10.816406 -19.796875 9.132812 -19.128906 7.875 -17.796875 C 6.625 -16.460938 6 -14.503906 6 -11.921875 L 6 0 L 3.203125 0 L 3.203125 -21.84375 L 6 -21.84375 L 6 -18.125 C 6.695312 -19.457031 7.695312 -20.472656 9 -21.171875 C 10.300781 -21.878906 11.78125 -22.234375 13.4375 -22.234375 Z M 13.4375 -22.234375 "/></g></g></g><g fill="#252f3c" fill-opacity="1"><g transform="translate(204.387481, 58.499999)"><g><path d="M 6.84375 -19.484375 L 6.84375 -5.921875 C 6.84375 -4.585938 7.09375 -3.664062 7.59375 -3.15625 C 8.101562 -2.65625 9 -2.40625 10.28125 -2.40625 L 12.84375 -2.40625 L 12.84375 0 L 9.84375 0 C 7.863281 0 6.394531 -0.457031 5.4375 -1.375 C 4.476562 -2.300781 4 -3.816406 4 -5.921875 L 4 -19.484375 L 0.953125 -19.484375 L 0.953125 -21.84375 L 4 -21.84375 L 4 -27.3125 L 6.84375 -27.3125 L 6.84375 -21.84375 L 12.84375 -21.84375 L 12.84375 -19.484375 Z M 6.84375 -19.484375 "/></g></g></g></svg>